<mxfile host="app.diagrams.net" modified="2023-04-20T20:25:01.839Z" agent="Mozilla/5.0 (Macintosh; Intel Mac OS X 10_15_7) AppleWebKit/605.1.15 (KHTML, like Gecko) Version/16.3 Safari/605.1.15" version="21.2.1" etag="g1nvNHzWUYu6ZOF8-Kiu" type="github">
  <diagram name="Страница 1" id="_6wwsNS7SIUrHPIxaLNQ">
    <mxGraphModel>
      <root>
        <mxCell id="0" />
        <mxCell id="1" parent="0" />
      </root>
    </mxGraphModel>
  </diagram>
</mxfile>
